<?xml version="1.0" encoding="UTF-8"?>
<svg xmlns="http://www.w3.org/2000/svg" id="Layer_1" data-name="Layer 1" viewBox="0 0 24 24">
  <path d="m20,0h-10.5c-.276,0-.5.224-.5.5s.224.5.5.5h10.5c1.654,0,3,1.346,3,3v6c0,1.654-1.346,3-3,3v-1c0-.552-.449-1-1-1h-3c-.551,0-1,.448-1,1v1h-5.5c-.276,0-.5.224-.5.5s.224.5.5.5h10.5c2.206,0,4-1.794,4-4v-6c0-2.206-1.794-4-4-4Zm-4,12h3v1h-3v-1ZM4.5,5c1.378,0,2.5-1.121,2.5-2.5S5.878,0,4.5,0s-2.5,1.121-2.5,2.5,1.122,2.5,2.5,2.5Zm0-4c.827,0,1.5.673,1.5,1.5s-.673,1.5-1.5,1.5-1.5-.673-1.5-1.5.673-1.5,1.5-1.5Zm2.5,6v6.5c0,.276-.224.5-.5.5s-.5-.224-.5-.5v-6.5h-2.5c-1.378,0-2.5,1.121-2.5,2.5v4c0,.276-.224.5-.5.5s-.5-.224-.5-.5v-4c0-1.93,1.57-3.5,3.5-3.5h11c.276,0,.5.224.5.5s-.224.5-.5.5h-7.5Zm-5,11c0-.828.673-1.5,1.5-1.5s1.5.672,1.5,1.5-.673,1.5-1.5,1.5-1.5-.672-1.5-1.5Zm8.5,0c0-.828.673-1.5,1.5-1.5s1.5.672,1.5,1.5-.673,1.5-1.5,1.5-1.5-.672-1.5-1.5Zm8.5,0c0-.828.673-1.5,1.5-1.5s1.5.672,1.5,1.5-.673,1.5-1.5,1.5-1.5-.672-1.5-1.5Zm-3.532,5.323c.098.258-.032.547-.291.645-.059.021-.118.032-.177.032-.202,0-.392-.123-.468-.323-.38-1.003-1.397-1.677-2.532-1.677s-2.152.674-2.532,1.677c-.099.259-.387.387-.645.291-.258-.098-.388-.387-.291-.645.527-1.39,1.92-2.323,3.468-2.323s2.941.934,3.468,2.323Zm8.5,0c.098.258-.032.547-.291.645-.059.021-.118.032-.177.032-.202,0-.392-.123-.468-.323-.38-1.003-1.397-1.677-2.532-1.677s-2.152.674-2.532,1.677c-.098.259-.386.387-.645.291-.258-.098-.388-.387-.291-.645.527-1.39,1.92-2.323,3.468-2.323s2.941.934,3.468,2.323Zm-17,0c.098.258-.032.547-.291.645-.059.021-.118.032-.177.032-.202,0-.392-.123-.468-.323-.38-1.003-1.397-1.677-2.532-1.677s-2.152.674-2.532,1.677c-.098.259-.386.387-.645.291-.258-.098-.388-.387-.291-.645.527-1.39,1.92-2.323,3.468-2.323s2.941.934,3.468,2.323Z"/>
</svg>
