<svg width="32" height="32" viewBox="0 0 32 32" fill="none" xmlns="http://www.w3.org/2000/svg">
<g clip-path="url(#clip0_221_18)">
<rect width="32" height="32" fill="white"/>
<path d="M1.8293 11.998C1.8293 9.75195 2.39896 7.9681 3.53828 6.64648C4.6776 5.32487 6.32148 4.66406 8.46992 4.66406C9.7069 4.66406 10.7551 4.85612 11.6145 5.24023C12.4738 5.62435 13.0793 6.18099 13.4309 6.91016C13.6652 7.39193 13.6262 7.71745 13.3137 7.88672L12.1418 8.51172C11.7316 8.73307 11.3931 8.60938 11.1262 8.14062C10.9569 7.84115 10.6411 7.57096 10.1789 7.33008C9.72318 7.08919 9.18607 6.96875 8.56758 6.96875C7.20039 6.96875 6.24336 7.40169 5.69648 8.26758C5.14961 9.12695 4.87617 10.3704 4.87617 11.998C4.87617 13.6257 5.14961 14.8724 5.69648 15.7383C6.24336 16.5977 7.20039 17.0273 8.56758 17.0273C9.30326 17.0273 9.92174 16.8613 10.423 16.5293C10.9309 16.1973 11.2824 15.8815 11.4777 15.582C11.7967 15.0938 12.1353 14.9701 12.4934 15.2109L13.6652 15.9922C13.9842 16.207 14.0168 16.5326 13.7629 16.9688C13.3853 17.6198 12.7375 18.1764 11.8195 18.6387C10.9016 19.1009 9.78503 19.332 8.46992 19.332C6.35404 19.332 4.71667 18.6712 3.55781 17.3496C2.40547 16.028 1.8293 14.2441 1.8293 11.998ZM19.9656 17.9551C19.562 17.6491 19.4643 17.3398 19.6727 17.0273L20.4246 15.8945C20.672 15.5234 21.0333 15.5039 21.5086 15.8359C21.8732 16.0898 22.3484 16.3535 22.9344 16.627C23.5268 16.8939 24.1486 17.0273 24.7996 17.0273C25.2553 17.0273 25.6948 16.9753 26.118 16.8711C26.5411 16.7669 26.8634 16.5651 27.0848 16.2656C27.3061 15.9661 27.4168 15.6113 27.4168 15.2012C27.4168 14.9082 27.368 14.651 27.2703 14.4297C27.1727 14.2083 27.0132 14.026 26.7918 13.8828C26.5704 13.7396 26.3426 13.6191 26.1082 13.5215C25.698 13.3522 25.1805 13.1862 24.5555 13.0234C23.937 12.8542 23.325 12.6523 22.7195 12.418C22.1792 12.2096 21.6844 11.9232 21.2352 11.5586C20.7859 11.194 20.4376 10.7839 20.1902 10.3281C19.9428 9.8724 19.8191 9.26367 19.8191 8.50195C19.8191 7.59701 20.1121 6.82227 20.698 6.17773C21.284 5.5332 21.9578 5.11979 22.7195 4.9375C23.4813 4.75521 24.2495 4.66406 25.0242 4.66406C25.7924 4.66406 26.5835 4.78125 27.3973 5.01562C28.2176 5.25 28.8361 5.54297 29.2527 5.89453C29.6629 6.23958 29.7638 6.55208 29.5555 6.83203L28.7645 7.89648C28.4975 8.26107 28.1395 8.29036 27.6902 7.98438C27.4038 7.78906 27.0099 7.57096 26.5086 7.33008C26.0138 7.08919 25.4962 6.96875 24.9559 6.96875C24.5717 6.96875 24.2169 7.0013 23.8914 7.06641C23.5724 7.13151 23.2892 7.28776 23.0418 7.53516C22.7944 7.78255 22.6707 8.08854 22.6707 8.45312C22.6707 8.80469 22.7618 9.09115 22.9441 9.3125C23.1264 9.52734 23.3283 9.6901 23.5496 9.80078C23.771 9.90495 23.9956 9.99284 24.2234 10.0645C24.9266 10.2923 25.5548 10.4941 26.1082 10.6699C26.6616 10.8392 27.1727 11.028 27.6414 11.2363C28.2924 11.5293 28.7905 11.8223 29.1355 12.1152C29.4806 12.4082 29.7638 12.8086 29.9852 13.3164C30.213 13.8242 30.327 14.4297 30.327 15.1328C30.327 16.1745 29.9949 17.0371 29.3309 17.7207C28.6668 18.3978 27.9279 18.834 27.1141 19.0293C26.3068 19.2311 25.519 19.332 24.7508 19.332C23.618 19.332 22.6967 19.2214 21.9871 19C21.2775 18.7852 20.6036 18.4368 19.9656 17.9551Z" fill="#5BC3CD"/>
<path fill-rule="evenodd" clip-rule="evenodd" d="M2 28H30V29H2V28Z" fill="#F8A941" stroke="#F8A941" stroke-width="0.287999"/>
<path fill-rule="evenodd" clip-rule="evenodd" d="M2 22H30V26H2V22Z" fill="#F8A941" stroke="#F8A941" stroke-width="0.287999"/>
</g>
<defs>
<clipPath id="clip0_221_18">
<rect width="32" height="32" fill="white"/>
</clipPath>
</defs>
</svg>
