<?xml version="1.0" encoding="UTF-8"?>
<svg version="1.1" xmlns="http://www.w3.org/2000/svg" width="512" height="512">
<path d="M0 0 C1.38687958 -0.00417951 2.77375574 -0.0096604 4.16062564 -0.01631981 C7.9479753 -0.03071111 11.73510618 -0.02654972 15.52246749 -0.019153 C19.61583399 -0.0144082 23.70915405 -0.02694238 27.80250549 -0.03717041 C35.81062168 -0.054335 43.81865932 -0.05520372 51.82678912 -0.04995751 C58.33395319 -0.04591213 64.84109409 -0.04736371 71.34825706 -0.05270576 C72.27520457 -0.05345419 73.20215207 -0.05420261 74.15718889 -0.05497371 C76.0403399 -0.0565052 77.9234909 -0.05804355 79.8066419 -0.05958868 C97.4495094 -0.0733039 115.09233251 -0.0678817 132.735199 -0.05640347 C148.88137927 -0.04646028 165.02744512 -0.05943222 181.17360774 -0.08333766 C197.75689238 -0.10770535 214.34012367 -0.117343 230.92342585 -0.11068493 C240.2321755 -0.10718904 249.54083702 -0.10944975 258.84957314 -0.12693596 C266.76900323 -0.14162831 274.68828305 -0.14233177 282.6077101 -0.12486505 C286.64889994 -0.11633032 290.68982099 -0.11426572 294.73099709 -0.1295166 C298.4287982 -0.14329931 302.1260986 -0.1386843 305.82387026 -0.11927737 C307.79806297 -0.113704 309.77228076 -0.12784172 311.74642593 -0.14263147 C312.9171517 -0.13281718 314.08787747 -0.12300289 315.29407978 -0.1128912 C316.80957652 -0.11273019 316.80957652 -0.11273019 318.35568935 -0.11256593 C322.55052966 0.64842778 324.9874789 2.78519705 327.40962565 6.23314869 C328.36943775 9.17232733 328.36672318 11.76739532 328.37047386 14.86018181 C328.37397994 15.5113351 328.37748601 16.16248839 328.38109833 16.83337361 C328.39043337 19.02448298 328.3854837 21.21532779 328.38063049 23.40644836 C328.3843657 24.98954998 328.38896669 26.57264975 328.39436114 28.15574658 C328.40662258 32.51335091 328.40632698 36.87087865 328.40397239 41.22849631 C328.40356502 45.9252566 328.41459571 50.62199206 328.42408752 55.31874084 C328.44071551 64.52314958 328.44619787 73.72753271 328.44731228 82.9319552 C328.44826186 90.41179002 328.45236765 97.89161637 328.45871353 105.37144852 C328.47633051 126.56703715 328.48555164 147.76260551 328.48405258 168.95820151 C328.48397267 170.10136986 328.48389276 171.24453821 328.48381042 172.42234802 C328.48372866 173.56690823 328.4836469 174.71146843 328.48356266 175.89071228 C328.48274954 194.44537038 328.50189272 212.99994735 328.53008716 231.55458198 C328.55879272 250.59545234 328.57262875 269.63628309 328.57089961 288.67717564 C328.57023492 299.37159406 328.57576166 310.06592742 328.59725571 320.76032639 C328.61543685 329.86489685 328.6198401 338.96934369 328.60623686 348.07392441 C328.5996918 352.72074352 328.5996453 357.36732525 328.61694336 362.01412201 C328.63261134 366.26669408 328.62987512 370.51883932 328.6123751 374.77140059 C328.60929131 376.31108336 328.61298924 377.8507975 328.62409525 379.39044331 C328.63818488 381.48197929 328.6276575 383.5720115 328.61098289 385.66349602 C328.611635 387.40657738 328.611635 387.40657738 328.61230028 389.18487251 C327.91463649 393.66193884 325.93163558 397.00818096 322.30070496 399.76268005 C320.11320496 400.38768005 320.11320496 400.38768005 313.11320496 400.38768005 C313.11320496 416.22768005 313.11320496 432.06768005 313.11320496 448.38768005 C315.75320496 448.38768005 318.39320496 448.38768005 321.11320496 448.38768005 C324.55143618 450.48051645 326.92489848 452.49867705 328.11320496 456.38768005 C328.58555727 461.26865393 328.63590263 463.41438093 326.30070496 467.76268005 C323.91288139 470.62806833 322.38161164 472.26037623 318.59241295 472.64067972 C317.06747687 472.64279299 317.06747687 472.64279299 315.51173401 472.64494896 C313.75209336 472.6546223 313.75209336 472.6546223 311.95690441 472.66449106 C310.66189668 472.66139385 309.36688894 472.65829665 308.03263855 472.65510559 C306.64782875 472.65884026 305.26302107 472.66344104 303.87821674 472.66883624 C300.06387712 472.68110535 296.24962494 472.68080117 292.43527007 472.67844748 C288.32463072 472.67804028 284.21401976 472.68906952 280.10339355 472.69856262 C272.04486307 472.71519709 263.98636183 472.72067335 255.92781562 472.72178738 C249.37572639 472.72273709 242.82364684 472.72684353 236.27156067 472.73318863 C217.69625543 472.75081091 199.12097332 472.76002644 180.54565966 472.75852768 C179.54362832 472.75844777 178.54159698 472.75836786 177.50920105 472.75828552 C176.50594579 472.75820376 175.50269053 472.758122 174.4690336 472.75803776 C158.22300139 472.7572255 141.97706205 472.77634549 125.73105669 472.80456226 C109.05078893 472.8333045 92.37056643 472.84710168 75.69027328 472.8453747 C66.32533094 472.84471107 56.96048583 472.85019134 47.5955658 472.8717308 C39.61832102 472.88996065 31.64121749 472.89427546 23.66396087 472.88071196 C19.59574309 472.87419021 15.52779614 472.87403596 11.45960426 472.89141846 C7.72976399 472.90719072 4.00040833 472.90424369 0.27057958 472.88685019 C-1.70647728 472.88234742 -3.68354941 472.8974054 -5.66054726 472.91332948 C-18.97291077 472.81077821 -30.20357313 468.29992122 -40.14460754 459.35643005 C-52.25373118 446.64875658 -54.19233093 432.38547844 -54.14749146 415.61146545 C-54.15051483 414.00698843 -54.15440524 412.40251285 -54.15908402 410.79803979 C-54.16934876 406.40437349 -54.16718609 402.01078893 -54.16290343 397.61711597 C-54.16043344 392.87263424 -54.16945374 388.12817205 -54.17694092 383.38369751 C-54.18968226 374.0947393 -54.19148232 364.80581 -54.18914066 355.51684453 C-54.18735674 347.9656624 -54.18910871 340.41448903 -54.1933651 332.86330795 C-54.19396029 331.78808779 -54.19455548 330.71286763 -54.1951687 329.60506504 C-54.19638047 327.42066889 -54.1975946 325.23627274 -54.19881108 323.05187659 C-54.2096844 302.57228207 -54.20752508 282.09270401 -54.20142623 261.61310856 C-54.196257 242.88433078 -54.20751305 224.15560501 -54.22652445 205.42683752 C-54.24590362 186.18803343 -54.25415872 166.94925395 -54.2504012 147.71044004 C-54.24848931 136.91255505 -54.25097557 126.11471433 -54.26511574 115.31683731 C-54.27703148 106.12471058 -54.27843221 96.93265537 -54.26632557 87.74052764 C-54.26043834 83.05258901 -54.25933321 78.36478118 -54.27132797 73.67685127 C-54.28219138 69.38110266 -54.27907797 65.08559401 -54.26506629 60.7898566 C-54.26242063 59.24014216 -54.26478175 57.69040888 -54.27280215 56.14071293 C-54.35517793 39.02944282 -50.6986675 25.54814637 -38.69538879 12.9384613 C-27.28362122 2.57422733 -14.96819186 -0.0707825 0 0 Z M13.11320496 24.38768005 C13.11320496 140.21768005 13.11320496 256.04768005 13.11320496 375.38768005 C108.81320496 375.38768005 204.51320496 375.38768005 303.11320496 375.38768005 C303.52951448 313.21402143 303.52951448 313.21402143 303.89054871 251.0400238 C303.89572974 250.04977416 303.90091077 249.05952451 303.90624881 248.0392673 C304.16026387 199.17631054 304.19756171 150.31370134 304.17570496 101.45018005 C304.17528072 100.47304676 304.17485649 99.49591347 304.1744194 98.48917007 C304.16351014 73.78866298 304.14340325 49.08817097 304.11320496 24.38768005 C296.52320496 24.38768005 288.93320496 24.38768005 281.11320496 24.38768005 C281.09862244 28.17317322 281.08403992 31.95866638 281.0690155 35.85887146 C281.01870002 48.35996119 280.95226055 60.86092147 280.87749004 73.36188698 C280.83254681 80.94192234 280.79312879 88.52191088 280.76676941 96.10203552 C280.74377735 102.70977795 280.71036593 109.31737201 280.6645034 115.92499673 C280.64058729 119.42289128 280.62184803 122.92063902 280.61559105 126.41861343 C280.60840644 130.32594648 280.57795731 134.23291199 280.545578 138.14012146 C280.54701309 139.29674286 280.54844818 140.45336426 280.54992676 141.64503479 C280.4840623 147.25763862 280.41558108 151.60320708 277.11320496 156.38768005 C273.15244699 158.96677826 269.12357397 159.49220099 264.48820496 159.01268005 C260.04610865 156.87389294 257.34041916 154.05727644 254.11320496 150.38768005 C253.57050964 149.77666443 253.02781433 149.1656488 252.46867371 148.53611755 C251.33017573 147.24030955 250.1976019 145.93927854 249.07023621 144.6337738 C246.7407728 141.96023796 244.36911321 139.32799731 241.98820496 136.70018005 C241.18125183 135.80943787 240.37429871 134.91869568 239.54289246 134.0009613 C237.12459533 131.39993111 234.64002109 128.88302339 232.11320496 126.38768005 C223.36940803 135.79881119 223.36940803 135.79881119 214.83976746 145.40330505 C212.6752672 147.89101123 210.49276837 150.36171832 208.30070496 152.82518005 C207.55175964 153.66951599 206.80281433 154.51385193 206.03117371 155.3837738 C203.90383757 157.60642846 202.95279482 158.31040807 199.90617371 158.59080505 C190.9579059 158.75179338 190.9579059 158.75179338 187.11320496 155.38768005 C185.14525964 152.22862591 184.85661374 149.77596159 184.83473206 146.08525085 C184.81800477 144.47744688 184.81800477 144.47744688 184.80093956 142.83716202 C184.79768134 141.07407763 184.79768134 141.07407763 184.7943573 139.27537537 C184.78420404 138.01604565 184.77405079 136.75671593 184.76358986 135.4592247 C184.73801423 132.05534426 184.72094455 128.65163328 184.70800781 125.24769592 C184.6940673 122.05260807 184.669431 118.85761032 184.64567566 115.6625824 C184.58244584 106.3210148 184.53637195 96.97933746 184.48820496 87.63768005 C184.36445496 66.76518005 184.24070496 45.89268005 184.11320496 24.38768005 C127.68320496 24.38768005 71.25320496 24.38768005 13.11320496 24.38768005 Z M209.11320496 24.38768005 C209.11320496 53.75768005 209.11320496 83.12768005 209.11320496 113.38768005 C214.87367971 108.52518913 214.87367971 108.52518913 219.80070496 103.20018005 C225.02591189 96.87755496 225.02591189 96.87755496 229.41007996 95.84861755 C234.29317898 95.67755358 237.38429662 96.04112267 241.17570496 99.26268005 C242.52393919 100.60265979 243.83356258 101.98204972 245.11320496 103.38768005 C245.92531433 104.27584412 246.73742371 105.16400818 247.57414246 106.0790863 C249.17474056 107.85388199 250.76055319 109.64217519 252.32804871 111.4462738 C252.91715027 112.08693787 253.50625183 112.72760193 254.11320496 113.38768005 C254.44320496 113.38768005 254.77320496 113.38768005 255.11320496 113.38768005 C255.11320496 84.01768005 255.11320496 54.64768005 255.11320496 24.38768005 C239.93320496 24.38768005 224.75320496 24.38768005 209.11320496 24.38768005 Z M-21.88679504 31.38768005 C-26.48055888 37.00446625 -29.01255264 41.71642599 -29.00984287 49.0354948 C-29.01183392 50.21885565 -29.01382497 51.4022165 -29.01587635 52.62143677 C-29.01296351 53.92783877 -29.01005067 55.23424077 -29.00704956 56.58023071 C-29.00748541 57.9770026 -29.00836056 59.37377441 -29.00963873 60.77054578 C-29.01188105 64.61751008 -29.00786596 68.46444668 -29.00286067 72.31140745 C-28.99855261 76.45658772 -29.00000284 80.60176636 -29.00076294 84.74694824 C-29.00128795 91.93166666 -28.99814355 99.11637601 -28.9925251 106.30109215 C-28.98440699 116.68905705 -28.98179456 127.07701756 -28.98053711 137.46498529 C-28.97834708 154.31771871 -28.97168832 171.1704473 -28.9622345 188.0231781 C-28.95305911 204.39655025 -28.9459789 220.76992109 -28.94172668 237.14329529 C-28.94146396 238.15211162 -28.94120124 239.16092796 -28.94093055 240.20031448 C-28.93962554 245.26111866 -28.93836183 250.32192284 -28.93711865 255.38272703 C-28.92674757 297.3843814 -28.90913058 339.38603045 -28.88679504 381.38768005 C-27.67443176 380.9719574 -27.67443176 380.9719574 -26.43757629 380.5478363 C-25.36894348 380.18560974 -24.30031067 379.82338318 -23.19929504 379.45018005 C-22.14355286 379.09053162 -21.08781067 378.73088318 -20.00007629 378.3603363 C-16.88679504 377.38768005 -16.88679504 377.38768005 -11.88679504 376.38768005 C-11.88679504 260.88768005 -11.88679504 145.38768005 -11.88679504 26.38768005 C-15.78361512 26.38768005 -18.94592233 29.01424846 -21.88679504 31.38768005 Z M-24.38679504 410.32518005 C-28.15159022 416.01491287 -29.83312539 421.53285123 -28.88679504 428.38768005 C-27.24530859 435.00557166 -24.49502853 439.45288127 -19.37507629 443.9150238 C-11.75340394 448.42580948 -4.21423495 448.81564242 4.47076416 448.7484436 C5.69126903 448.75100688 6.91177391 448.75357015 8.16926378 448.7562111 C11.53539502 448.7602809 14.90099661 448.75097175 18.2670635 448.73587692 C21.9049756 448.72287065 25.54287257 448.72730925 29.18080139 448.72958374 C35.47656148 448.73115358 41.772228 448.72177469 48.06796455 448.70487022 C57.17042555 448.68044549 66.27284148 448.67267141 75.37533169 448.66890625 C90.14499671 448.66234721 104.9146119 448.64240092 119.68424988 448.61399841 C134.02799735 448.58644367 148.37173127 448.56521702 162.71549988 448.55247498 C163.60027305 448.55168681 164.48504623 448.55089863 165.39663071 448.55008658 C169.83546408 448.54617135 174.27429754 448.54238025 178.71313107 448.53865087 C215.51319229 448.50757201 252.31319147 448.45392305 289.11320496 448.38768005 C289.11320496 432.87768005 289.11320496 417.36768005 289.11320496 401.38768005 C251.0652257 401.27461142 213.01729067 401.18511217 174.96917716 401.13235341 C170.47568224 401.12609999 165.98218766 401.11962837 161.48869324 401.11302185 C160.59413191 401.1117103 159.69957058 401.11039875 158.77790134 401.10904745 C144.29958494 401.08730004 129.82136796 401.04788217 115.34311052 401.00191607 C100.48340537 400.95513295 85.62375223 400.92738073 70.76397645 400.91723758 C61.59710757 400.91038226 52.43051973 400.88874258 43.26373737 400.84809772 C36.97488758 400.82163643 30.68618276 400.81368671 24.39728136 400.82017317 C20.77062263 400.82337084 17.14445446 400.81852284 13.5178833 400.79165268 C9.5800459 400.76269039 5.64284237 400.77276999 1.70491028 400.78640747 C0.5667542 400.77184326 -0.57140187 400.75727906 -1.74404752 400.74227351 C-10.90305781 400.82789438 -18.46755494 402.99907364 -24.38679504 410.32518005 Z " fill="#FFFFFF" transform="translate(118.88679504394531,19.612319946289063)"/>
</svg>
